<svg version="1.1" id="Laag_1" xmlns="http://www.w3.org/2000/svg" xmlns:xlink="http://www.w3.org/1999/xlink" x="0px" y="0px" viewBox="0 0 288 287.5" style="enable-background:new 0 0 288 287.5;" xml:space="preserve"><style type="text/css">
                .st0{clip-path:url(#SVGID_2_);fill:#EF7622;}
                .st1{clip-path:url(#SVGID_2_);fill:#FFFFFF;}
            </style><g><defs><rect id="SVGID_1_" x="2.9" y="2.6" width="282.8" height="282.8"/></defs><clipPath id="SVGID_2_"><use xlink:href="#SVGID_1_" style="overflow:visible;"/></clipPath><path class="st0" d="M285.6,144c0,78.1-63.3,141.4-141.4,141.4C66.2,285.4,2.9,222.1,2.9,144C2.9,65.9,66.2,2.6,144.2,2.6&#10;                    C222.3,2.6,285.6,65.9,285.6,144"/><path class="st1" d="M223.8,140.8c-12.3-2.7-25.4-4.6-25.4-16.8c0-10.8,11.6-14.7,22-14.7c12.8,0,22.4,5.6,22.6,19.5h5.7&#10;                    c0-17.4-12-24.4-28.2-24.4c-12,0-25.5,3.9-27.4,16.6c-3.2-11.6-13.7-16.6-27.1-16.6c-12.7,0-27,4.3-27.6,18.8&#10;                    c-4.9-11.2-14.8-18.8-29.9-18.8c-23,0-34,20.4-33.7,41.3c-0.3,21.1,11.4,38.6,33.7,38.6c13.8,0,24-5.8,29.4-16.4&#10;                    c4.4,10.8,15.3,16.4,28.7,16.4c10.6,0,23.2-2.9,27.9-12.4c5.3,8.2,15,12.4,26.6,12.4c13.4,0,29.9-4.6,29.9-21.1&#10;                    C250.8,147.2,239,143.6,223.8,140.8 M108.3,109.3c17.5,0,27.6,14.8,27.9,30.9h-56C81.4,125,91.4,109.3,108.3,109.3 M166.5,179.4&#10;                    c-13.8,0-24.3-8.1-25.3-22.2c0-0.2,0.1-0.3,0.1-0.5h-5.6c0,0.2-0.1,0.3-0.1,0.4h0v0c-2.8,13.8-13,22.3-27.2,22.3&#10;                    c-18.9,0-28.4-16.3-28.1-34.3h61.7c0.2-3.4,0-6.7-0.4-9.9c4.7,6.4,13.8,8.7,23,10.5c11.8,2.4,23.5,4.2,25.7,14&#10;                    c0.1,0.8,0.2,1.6,0.3,2.3c0,0.4,0.1,0.8,0.1,1.2C190.7,176.5,176.4,179.4,166.5,179.4 M221,179.4c-13.8,0-24.4-8.2-25.3-22.3h-0.1&#10;                    c-2.7-10.9-13.3-13.9-26.3-16.3c-12.3-2.7-25.4-4.6-25.4-16.8c0-10.8,11.6-14.7,22-14.7c12.8,0,22.4,5.6,22.6,19.5h4.8&#10;                    c2.4,11.6,14,14.6,25.8,16.9c13.1,2.7,26.2,4.6,26.2,17.5C245.2,176.5,230.9,179.4,221,179.4"/><path class="st1" d="M21.8,209.7c14.5,0,21.8-5,26.4-17.4L84.5,95h10.8v-6.5H68.9V95h9c-6.1,16.2-30,79.6-36,95.3&#10;                    c-5,12.9-13.4,12.1-20.7,12.9c-1.8,0.1-3.6,0-5.5-0.2c1,2.3,2.1,4.5,3.3,6.7C19.9,209.6,20.9,209.7,21.8,209.7"/></g></svg>