<svg id="Layer_1" data-name="Layer 1" xmlns="http://www.w3.org/2000/svg" viewBox="0 0 400 400">
  <defs>
    <style>
      .cls-1 {
        fill: #f2aa4c;
      }
    </style>
  </defs>
  <title>list-check</title>
  <path class="cls-1" d="M200.5,0C90,0,.5,89.54.5,200S90,400,200.5,400s200-89.54,200-200S311,0,200.5,0Zm0,38.71A161.29,161.29,0,1,1,39.21,200,161.2,161.2,0,0,1,200.5,38.71m113.07,105-18.18-18.32a9.67,9.67,0,0,0-13.68,0l-114,113.08L119.5,189.85a9.69,9.69,0,0,0-13.69,0L87.49,208a9.68,9.68,0,0,0-.06,13.69l73.21,73.8a9.68,9.68,0,0,0,13.69.06L313.51,157.45a9.68,9.68,0,0,0,.06-13.69Z" transform="translate(-0.5)"/>
</svg>
