<svg xmlns="http://www.w3.org/2000/svg" width="246.508" height="200" viewBox="0 0 246.508 200">
  <path fill="rgb(0,0,0)" fill-rule="evenodd" d="M221.1692871 49.84356851c.1564752 2.18739555.1564752 4.37527205.1564752 6.56266759C221.3257623 123.12468587 170.4915397 200 77.58137322 200 48.95748298 200 22.36728905 191.71838966 0 177.34400739c4.06691113.46845278 7.9768656.62476403 12.20025194.62476403 23.61812783 0 45.35999749-7.9685069 62.72200559-21.56229484-22.21081384-.46893374-40.82414218-15.00010822-47.23721857-35.0002525 3.12854132.46845278 6.25660118.78107527 9.54161772.78107527 4.5358553 0 9.07219208-.62524499 13.29509696-1.7184618C27.37257 115.780943 10.01008044 95.46865719 10.01008044 70.93741057v-.62476403c6.72554535 3.75002706 14.54689866 6.09373384 22.83623322 6.40587538-13.6080474-9.06268562-22.5232828-24.53124662-22.5232828-42.03137287 0-9.37482715 2.502159-17.96857903 6.88202057-25.46863314C42.07498095 39.84349637 79.45811284 59.8431597 121.37661858 62.0310362c-.7818946-3.75002705-1.25132024-7.6558844-1.25132024-11.5622227C120.12529834 22.65599261 142.6490626 0 170.64705198 0c14.5464172 0 27.68503896 6.09373384 36.91370626 15.93749474 11.41787588-2.18739554 22.36680758-6.40635634 32.06490052-12.18746769-3.75444218 11.7190149-11.73130777 21.5627758-22.21081384 27.81233994 10.1670371-1.09321682 20.02112379-3.9063383 29.0928344-7.81219565-6.88105764 9.99959119-15.48430555 18.9054846-25.33839223 26.09339717z"/>
</svg>
