<svg xmlns="http://www.w3.org/2000/svg" width="153.761" height="200" viewBox="0 0 153.761 200">
  <path fill="rgb(0,0,0)" fill-rule="evenodd" d="M81.68559574 0C40.60254612 0 0 27.36 0 71.64 0 99.8 15.85661564 115.8 25.46668573 115.8c3.96415391 0 6.24654556-11.04 6.24654556-14.16 0-3.72-9.48994421-11.64-9.48994421-27.12 0-32.16 24.50567872-54.96 56.21891001-54.96 27.26857387 0 47.44972106 15.48 47.44972106 43.92 0 21.24-8.5289372 61.08-36.1578887 61.08-9.97044772 0-18.49938493-7.2-18.49938493-17.52 0-15.12 10.5710771-29.76 10.5710771-45.36 0-26.48-37.59939922-21.68-37.59939922 10.32 0 6.72.84088114 14.16 3.84402804 20.28-5.5257903 23.76-16.81762266 59.16-16.81762266 83.64 0 7.56 1.08113289 15 1.80188815 22.56 1.3614266 1.52.6807133 1.36 2.76289515.6 20.18114718-27.6 19.46039192-33 28.5899585-69.12 4.92516093 9.36 17.6585038 14.4 27.74907738 14.4 42.52456014 0 61.62457444-41.4 61.62457444-78.72 0-39.72-34.35600056-65.64-72.07552566-65.64z"/>
</svg>
