<svg xmlns="http://www.w3.org/2000/svg" width="200.21" height="200" viewBox="0 0 200.21 200">
  <path fill="rgb(0,0,0)" fill-rule="evenodd" d="M199.50681307 58.76382681c-.7595103-16.02137639-4.42170355-30.2131066-16.16873359-41.90556453-11.70191061-11.6925753-25.9051293-15.35210242-41.94038458-16.1553016-16.52592903-.93724178-66.05859669-.93724178-82.58452572 0-15.99013586.75859656-30.19335454 4.41812368-41.94038458 16.11058161C5.12575456 28.5061176 1.50774075 42.69773043.70405101 58.7192242c-.93810802 16.5122399-.93810802 66.00459173 0 82.516949.7595103 16.02137639 4.42170355 30.2131066 16.16873359 41.90556453 11.74703004 11.6925753 25.9051293 15.35210242 41.94038458 16.1553016 16.52592903.93724178 66.05859669.93724178 82.58452572 0 16.03525529-.75859656 30.23847397-4.41812368 41.94038458-16.1553016 11.70191061-11.69245793 15.36504385-25.88418814 16.16873359-41.90556453.93810802-16.51235727.93810802-65.9599891 0-82.47234638zm-40.37718454 119.20107328c8.79828768-3.5256019 15.54270158-10.26447003 19.0272371-19.01151217 4.48186278-11.25370906 4.23276596-35.86977445 4.07108802-51.8271813-.02725965-2.64716515-.05169934-5.05605845-.05169934-7.12620662 0-2.0705003.0244397-4.47904147.05169934-7.125385.16167794-15.94895582.41077476-40.53649901-4.07108802-51.8281203-3.52871496-8.79164475-10.27312886-15.53051288-19.0272371-19.01151217-11.29865576-4.4541579-36.05511972-4.21694242-52.0208159-4.06388502-2.59060692.02476618-4.9499768.04741962-6.98223086.04741962-2.07173355 0-4.48186278-.02441407-7.13074897-.05117563-15.96193623-.1616258-40.56988208-.41081356-51.8713578 4.06764103-8.79828768 3.5256019-15.54270158 10.26447003-19.0272371 19.01151217-4.4574231 11.28939115-4.21960613 36.02611836-4.06638808 51.9788302.02443968 2.58765587.0469994 4.94419978.0469994 6.9746751 0 2.0705003-.0244397 4.47904147-.05169934 7.125385-.16167794 15.94883845-.41077476 40.53638164 4.07108802 51.82800292 3.52871496 8.79176213 10.27312886 15.53051288 19.0272371 19.01151217 11.29865576 4.45427528 36.05511971 4.2170598 52.0208159 4.0640024 2.59060692-.02476618 4.94903681-.04741962 6.98129087-.04741962 2.07173355 0 4.48186278.02441407 7.13074897.05117563 15.96193623.1616258 40.57082207.41069618 51.87229779-4.06775841zM141.57629262 46.62499061c0-6.6049429 5.35981157-11.96030837 11.96980719-11.96030837 6.6109356 0 11.97074718 5.35536546 11.97074718 11.96030837 0 6.64954552-5.35981158 11.960191-11.97074718 11.960191-6.65511504 0-11.9698072-5.3552481-11.9698072-11.960191zm-41.44971085 2.09749662c-28.40643736 0-51.31958485 22.89416973-51.31958485 51.27751277s22.9131475 51.2773954 51.31958485 51.2773954c28.40737735 0 51.32052484-22.89405236 51.32052484-51.2773954 0-28.38334304-22.9131475-51.27751277-51.32052484-51.27751277zm.00093999 84.61456299c-18.35796564 0-33.36487406-14.95032677-33.36487406-33.33705022s14.96272898-33.33705022 33.36487406-33.33705022c18.40120509 0 33.36393407 14.95032677 33.36393407 33.33705022s-15.00690842 33.33705022-33.36393407 33.33705022z"/>
</svg>
