<svg xmlns="http://www.w3.org/2000/svg" width="200.21" height="200" viewBox="0 0 200.21 200">
  <path fill="rgb(0,0,0)" fill-rule="evenodd" d="M24.03831312 48.25556828C10.76568256 48.25556828 0 37.27311354 0 24.0139301 0 10.75134277 10.7628626 0 24.03831312 0c13.27639052 0 24.03831313 10.75134277 24.03831313 24.0139301 0 13.25918344-10.76944252 24.24163818-24.03831313 24.24163818zM158.74705342 200h41.46287067v-73.34982065c0-35.89371901-7.72200142-63.52820763-49.73006514-63.52820763-20.19564218 0-33.73146938 11.07165997-39.27363862 21.56301645h-.58091259V66.47021954H70.81587595V200h41.46287068v-66.11750676c0-17.41109995 3.30687779-34.24189641 24.88806228-34.24189641 21.2672285 0 21.5802445 19.86659123 21.5802445 35.35801814V200zm-113.93124554 0H3.30781778V66.47021954h41.5079901V200z"/>
</svg>
